<svg width="502" height="502" xmlns="http://www.w3.org/2000/svg" xmlns:xlink="http://www.w3.org/1999/xlink" xml:space="preserve" overflow="hidden"><defs><clipPath id="clip0"><rect x="0" y="0" width="502" height="502"/></clipPath></defs><g clip-path="url(#clip0)"><path d="M363.829 112.834 363.829 356.897C363.829 362.226 359.512 366.548 354.178 366.548 348.843 366.548 344.521 362.226 344.521 356.897L344.521 112.834C344.521 61.2584 302.57 19.3083 251.003 19.3083 199.434 19.3083 157.483 61.2654 157.483 112.834L157.483 128.778 157.483 212.405 157.483 408.695C157.483 449.499 190.679 482.705 231.479 482.705 272.292 482.705 305.486 449.511 305.486 408.695L305.486 245.923 305.486 159.007C305.486 132.393 283.835 110.744 257.224 110.744 230.602 110.744 208.96 132.394 208.96 159.007L208.96 375.862C208.96 381.19 204.643 385.513 199.307 385.513 193.972 385.513 189.656 381.19 189.656 375.862L189.656 159.008C189.656 121.756 219.969 91.4399 257.224 91.4399 294.48 91.4399 324.793 121.756 324.793 159.008L324.793 245.924 324.793 408.696 324.793 416.414C324.793 417.78 324.51 419.062 324.001 420.234 318.288 466.247 279.01 502.001 231.474 502.001 180.025 502.001 138.172 460.145 138.172 408.696L138.172 212.399 138.172 128.772 138.172 112.828C138.177 50.6213 188.789 2.84217e-14 251.003 2.84217e-14 313.213 2.84217e-14 363.829 50.6213 363.829 112.834Z" fill="#FFFFFF"/></g></svg>