<svg width="368" height="368" xmlns="http://www.w3.org/2000/svg" xmlns:xlink="http://www.w3.org/1999/xlink" xml:space="preserve" overflow="hidden"><defs><clipPath id="clip0"><rect x="0" y="0" width="368" height="368"/></clipPath></defs><g clip-path="url(#clip0)"><path d="M261.336 226.04C258.04 223.088 252.976 223.376 250.04 226.664 233.352 245.312 209.288 256 184 256 158.72 256 134.648 245.312 117.96 226.664 115.008 223.376 109.96 223.088 106.664 226.04 103.368 228.984 103.096 234.04 106.04 237.336 125.76 259.368 154.176 272 184 272 213.832 272 242.248 259.36 261.96 237.336 264.904 234.04 264.624 228.984 261.336 226.04Z" fill="#FFFFFF"/><path d="M184 0C82.544 0 0 82.544 0 184 0 285.456 82.544 368 184 368 285.456 368 368 285.456 368 184 368 82.544 285.456 0 184 0ZM184 352C91.36 352 16 276.64 16 184 16 91.36 91.36 16 184 16 276.64 16 352 91.36 352 184 352 276.64 276.64 352 184 352Z" fill="#FFFFFF"/><path d="M248 128C225.944 128 208 145.944 208 168 208 172.416 211.584 176 216 176 220.416 176 224 172.416 224 168 224 154.768 234.768 144 248 144 261.232 144 272 154.768 272 168 272 172.416 275.584 176 280 176 284.416 176 288 172.416 288 168 288 145.944 270.056 128 248 128Z" fill="#FFFFFF"/><path d="M144 168C144 172.416 147.584 176 152 176 156.416 176 160 172.416 160 168 160 145.944 142.056 128 120 128 97.944 128 80 145.944 80 168 80 172.416 83.584 176 88 176 92.416 176 96 172.416 96 168 96 154.768 106.768 144 120 144 133.232 144 144 154.768 144 168Z" fill="#FFFFFF"/></g></svg>