<svg width="512" height="512" xmlns="http://www.w3.org/2000/svg" xmlns:xlink="http://www.w3.org/1999/xlink" xml:space="preserve" overflow="hidden"><defs><clipPath id="clip0"><rect x="0" y="0" width="512" height="512"/></clipPath></defs><g clip-path="url(#clip0)"><path d="M511.653 51.6745C514.149 40.0556 502.758 30.2587 491.646 34.4987L9.65091 218.497C3.84996 220.712 0.0129999 226.272 0.00099999 232.481-0.0109999 238.691 3.80396 244.266 9.59691 246.503L144.999 298.797 144.999 463.508C144.999 470.456 149.77 476.494 156.529 478.101 163.244 479.698 170.246 476.503 173.394 470.258L229.395 359.132 366.057 460.553C374.37 466.723 386.319 462.799 389.344 452.885 516.942 34.5317 511.426 52.7255 511.653 51.6745ZM392.673 104.392 157.872 271.609 56.8454 232.592ZM174.998 296.242 379.664 150.487C203.552 336.275 212.75 326.496 211.982 327.53 210.841 329.065 213.967 323.082 174.998 400.411ZM366.854 423.787 246.56 334.512 464.068 105.052Z" fill="#FFFFFF"/></g></svg>